<svg width="45" height="45" viewBox="0 0 45 45" fill="none" xmlns="http://www.w3.org/2000/svg">
<path fill-rule="evenodd" clip-rule="evenodd" d="M22.5 39.375C24.7161 39.375 26.9104 38.9385 28.9578 38.0905C31.0052 37.2424 32.8654 35.9994 34.4324 34.4324C35.9994 32.8654 37.2424 31.0052 38.0905 28.9578C38.9385 26.9104 39.375 24.7161 39.375 22.5C39.375 20.2839 38.9385 18.0896 38.0905 16.0422C37.2424 13.9948 35.9994 12.1346 34.4324 10.5676C32.8654 9.00058 31.0052 7.75758 28.9578 6.90953C26.9104 6.06148 24.7161 5.625 22.5 5.625C18.0245 5.625 13.7322 7.4029 10.5676 10.5676C7.4029 13.7322 5.625 18.0245 5.625 22.5C5.625 26.9755 7.4029 31.2677 10.5676 34.4324C13.7322 37.5971 18.0245 39.375 22.5 39.375Z" fill="white"/>
<path fill-rule="evenodd" clip-rule="evenodd" d="M22.5 7.03125C18.3974 7.03125 14.4629 8.66099 11.5619 11.5619C8.66099 14.4629 7.03125 18.3974 7.03125 22.5C7.03125 26.6026 8.66099 30.5371 11.5619 33.4381C14.4629 36.339 18.3974 37.9688 22.5 37.9688C26.6026 37.9688 30.5371 36.339 33.4381 33.4381C36.339 30.5371 37.9688 26.6026 37.9688 22.5C37.9688 18.3974 36.339 14.4629 33.4381 11.5619C30.5371 8.66099 26.6026 7.03125 22.5 7.03125ZM4.21875 22.5C4.21875 12.4031 12.4031 4.21875 22.5 4.21875C32.5969 4.21875 40.7812 12.4031 40.7812 22.5C40.7812 32.5969 32.5969 40.7812 22.5 40.7812C12.4031 40.7812 4.21875 32.5969 4.21875 22.5Z" fill="white"/>
<path fill-rule="evenodd" clip-rule="evenodd" d="M16.0312 22.5C16.0312 22.127 16.1794 21.7694 16.4431 21.5056C16.7069 21.2419 17.0645 21.0938 17.4375 21.0938H28.6875C29.0605 21.0938 29.4181 21.2419 29.6819 21.5056C29.9456 21.7694 30.0937 22.127 30.0937 22.5C30.0937 22.873 29.9456 23.2306 29.6819 23.4944C29.4181 23.7581 29.0605 23.9062 28.6875 23.9062H17.4375C17.0645 23.9062 16.7069 23.7581 16.4431 23.4944C16.1794 23.2306 16.0312 22.873 16.0312 22.5Z" fill="#FC0341"/>
<path fill-rule="evenodd" clip-rule="evenodd" d="M22.1813 16.0687C22.4446 16.3324 22.5925 16.6898 22.5925 17.0625C22.5925 17.4352 22.4446 17.7926 22.1813 18.0563L17.8313 22.4062L22.1813 26.7563C22.4297 27.0228 22.5649 27.3754 22.5585 27.7397C22.552 28.104 22.4044 28.4516 22.1468 28.7093C21.8891 28.9669 21.5415 29.1145 21.1772 29.121C20.8129 29.1274 20.4603 28.9921 20.1938 28.7437L15.5063 24.0562C15.287 23.841 15.1128 23.5843 14.9939 23.301C14.875 23.0177 14.8137 22.7135 14.8137 22.4062C14.8137 22.099 14.875 21.7948 14.9939 21.5115C15.1128 21.2282 15.287 20.9715 15.5063 20.7562L20.1938 16.0687C20.4574 15.8054 20.8148 15.6575 21.1875 15.6575C21.5602 15.6575 21.9176 15.8054 22.1813 16.0687Z" fill="#FC0341"/>
</svg>
