<svg width="50" height="50" viewBox="0 0 50 50" fill="none" xmlns="http://www.w3.org/2000/svg">
<path fill-rule="evenodd" clip-rule="evenodd" d="M0.625 17.5C0.625 8.215 8.215 0.625 17.5 0.625H32.5C32.9973 0.625 33.4742 0.822544 33.8258 1.17417C34.1775 1.52581 34.375 2.00272 34.375 2.5C34.375 2.99728 34.1775 3.47419 33.8258 3.82583C33.4742 4.17746 32.9973 4.375 32.5 4.375H17.5C10.285 4.375 4.375 10.285 4.375 17.5V32.5C4.37688 34.3143 4.75561 36.1085 5.48721 37.7688C6.2188 39.4291 7.2873 40.9193 8.625 42.145C9.42519 39.8027 10.726 37.6628 12.437 35.8741C14.1479 34.0854 16.228 32.6909 18.5325 31.7875C17.1696 30.4892 16.2291 28.8106 15.8334 26.9704C15.4377 25.1301 15.6051 23.2134 16.3138 21.4696C17.0226 19.7258 18.2398 18.2357 19.8072 17.1933C21.3745 16.1509 23.2193 15.6045 25.1015 15.6251C26.9837 15.6457 28.8162 16.2324 30.3603 17.3089C31.9044 18.3854 33.0888 19.9017 33.7591 21.6606C34.4295 23.4195 34.5549 25.3395 34.119 27.1707C33.6831 29.0018 32.706 30.6593 31.315 31.9275C33.5972 32.8807 35.6445 34.3192 37.3148 36.1432C38.9852 37.9672 40.2384 40.1329 40.9875 42.49C42.4389 41.2609 43.6054 39.7307 44.4062 38.0056C45.207 36.2805 45.6229 34.4019 45.625 32.5V22.5C45.625 22.0027 45.8225 21.5258 46.1742 21.1742C46.5258 20.8225 47.0027 20.625 47.5 20.625C47.9973 20.625 48.4742 20.8225 48.8258 21.1742C49.1775 21.5258 49.375 22.0027 49.375 22.5V32.5C49.375 41.785 41.785 49.375 32.5 49.375H17.5C8.215 49.375 0.625 41.785 0.625 32.5V17.5ZM37.67 44.5575C36.9779 41.6532 35.3256 39.0676 32.9807 37.2195C30.6358 35.3714 27.7356 34.3691 24.75 34.375C21.8009 34.3694 18.9341 35.3472 16.6032 37.1538C14.2722 38.9605 12.6102 41.4927 11.88 44.35C13.5875 45.1675 15.4925 45.625 17.5 45.625H32.5C34.3325 45.625 36.08 45.245 37.67 44.5575ZM25 19.375C23.5082 19.375 22.0774 19.9676 21.0225 21.0225C19.9676 22.0774 19.375 23.5082 19.375 25C19.375 26.4918 19.9676 27.9226 21.0225 28.9775C22.0774 30.0324 23.5082 30.625 25 30.625C26.4918 30.625 27.9226 30.0324 28.9775 28.9775C30.0324 27.9226 30.625 26.4918 30.625 25C30.625 23.5082 30.0324 22.0774 28.9775 21.0225C27.9226 19.9676 26.4918 19.375 25 19.375ZM40 3.125C40.4973 3.125 40.9742 3.32254 41.3258 3.67417C41.6775 4.02581 41.875 4.50272 41.875 5V10.625H47.5C47.9973 10.625 48.4742 10.8225 48.8258 11.1742C49.1775 11.5258 49.375 12.0027 49.375 12.5C49.375 12.9973 49.1775 13.4742 48.8258 13.8258C48.4742 14.1775 47.9973 14.375 47.5 14.375H41.875V20C41.875 20.4973 41.6775 20.9742 41.3258 21.3258C40.9742 21.6775 40.4973 21.875 40 21.875C39.5027 21.875 39.0258 21.6775 38.6742 21.3258C38.3225 20.9742 38.125 20.4973 38.125 20V14.375H32.5C32.0027 14.375 31.5258 14.1775 31.1742 13.8258C30.8225 13.4742 30.625 12.9973 30.625 12.5C30.625 12.0027 30.8225 11.5258 31.1742 11.1742C31.5258 10.8225 32.0027 10.625 32.5 10.625H38.125V5C38.125 4.50272 38.3225 4.02581 38.6742 3.67417C39.0258 3.32254 39.5027 3.125 40 3.125Z" fill="white"/>
</svg>
