<svg width="1280" height="720" viewBox="0 0 1280 720" fill="none" xmlns="http://www.w3.org/2000/svg">
<rect width="1280" height="720" fill="url(#paint0_linear_21_152)"/>
<g filter="url(#filter0_d_21_152)">
<path fill-rule="evenodd" clip-rule="evenodd" d="M0.000301741 288L52.0003 251.353C102 215.353 202 143.353 302 149.353C402 155.353 502 200.5 602 224.5C702 248.5 776 155.353 876 149.353C976 143.353 1052 47 1069.5 27C1087 7 1115 -3.05176e-05 1115 -3.05176e-05H1280V232C1280 232 1266 336.5 1167.5 387.5C1069 438.5 988 410.5 902.5 395.5C797 371 702 359.353 602 359.353C502 359.353 100 564 6.14153e-05 564C0.000123978 537.5 -9.8802e-05 558.5 0.000105284 487.5C0.000309371 416.5 0.000301741 324.5 0.000301741 324.5V288Z" fill="url(#paint1_linear_21_152)"/>
<path fill-rule="evenodd" clip-rule="evenodd" d="M0.000301741 288L52.0003 251.353C102 215.353 202 143.353 302 149.353C402 155.353 502 200.5 602 224.5C702 248.5 776 155.353 876 149.353C976 143.353 1052 47 1069.5 27C1087 7 1115 -3.05176e-05 1115 -3.05176e-05H1280V232C1280 232 1266 336.5 1167.5 387.5C1069 438.5 988 410.5 902.5 395.5C797 371 702 359.353 602 359.353C502 359.353 100 564 6.14153e-05 564C0.000123978 537.5 -9.8802e-05 558.5 0.000105284 487.5C0.000309371 416.5 0.000301741 324.5 0.000301741 324.5V288Z" />
</g>
<g filter="url(#filter1_d_21_152)">
<path fill-rule="evenodd" clip-rule="evenodd" d="M1280 511.927L1226.67 529.266C1173.33 546.606 1066.67 581.284 960 563.945C853.333 546.606 746.667 477.248 640 433.899C533.333 390.551 426.667 373.211 320 399.22C213.333 425.229 106.667 494.587 53.3333 529.266L-0.00012207 563.945V720H53.3333C106.667 720 213.333 720 320 720C426.667 720 533.333 720 640 720C746.667 720 853.333 720 960 720C1066.67 720 1173.33 720 1226.67 720H1280V511.927Z" fill="url(#paint2_linear_21_152)"/>
</g>
<g filter="url(#filter2_d_21_152)">
<path fill-rule="evenodd" clip-rule="evenodd" d="M0 720L53.3333 684.05C106.667 648.099 213.333 576.199 320 570.207C426.667 564.215 533.333 624.133 640 606.157C746.667 588.182 853.333 492.315 960 480.331C1066.67 468.348 1173.33 540.249 1226.67 576.199L1280 612.149V720H1226.67C1173.33 720 1066.67 720 960 720C853.333 720 746.667 720 640 720C533.333 720 426.667 720 320 720C213.333 720 106.667 720 53.3333 720H0Z" fill="url(#paint3_linear_21_152)"/>
<path fill-rule="evenodd" clip-rule="evenodd" d="M0 720L53.3333 684.05C106.667 648.099 213.333 576.199 320 570.207C426.667 564.215 533.333 624.133 640 606.157C746.667 588.182 853.333 492.315 960 480.331C1066.67 468.348 1173.33 540.249 1226.67 576.199L1280 612.149V720H1226.67C1173.33 720 1066.67 720 960 720C853.333 720 746.667 720 640 720C533.333 720 426.667 720 320 720C213.333 720 106.667 720 53.3333 720H0Z" />
</g>
<defs>
<filter id="filter0_d_21_152" x="-15.5" y="-24.5" width="1311" height="595" filterUnits="userSpaceOnUse" color-interpolation-filters="sRGB">
<feFlood flood-opacity="0" result="BackgroundImageFix"/>
<feColorMatrix in="SourceAlpha" type="matrix" values="0 0 0 0 0 0 0 0 0 0 0 0 0 0 0 0 0 0 127 0" result="hardAlpha"/>
<feOffset dy="-9"/>
<feGaussianBlur stdDeviation="7.75"/>
<feComposite in2="hardAlpha" operator="out"/>
<feColorMatrix type="matrix" values="0 0 0 0 0 0 0 0 0 0 0 0 0 0 0 0 0 0 0.25 0"/>
<feBlend mode="normal" in2="BackgroundImageFix" result="effect1_dropShadow_21_152"/>
<feBlend mode="normal" in="SourceGraphic" in2="effect1_dropShadow_21_152" result="shape"/>
</filter>
<filter id="filter1_d_21_152" x="-15.5" y="362.5" width="1311" height="364" filterUnits="userSpaceOnUse" color-interpolation-filters="sRGB">
<feFlood flood-opacity="0" result="BackgroundImageFix"/>
<feColorMatrix in="SourceAlpha" type="matrix" values="0 0 0 0 0 0 0 0 0 0 0 0 0 0 0 0 0 0 127 0" result="hardAlpha"/>
<feOffset dy="-9"/>
<feGaussianBlur stdDeviation="7.75"/>
<feComposite in2="hardAlpha" operator="out"/>
<feColorMatrix type="matrix" values="0 0 0 0 0 0 0 0 0 0 0 0 0 0 0 0 0 0 0.25 0"/>
<feBlend mode="normal" in2="BackgroundImageFix" result="effect1_dropShadow_21_152"/>
<feBlend mode="normal" in="SourceGraphic" in2="effect1_dropShadow_21_152" result="shape"/>
</filter>
<filter id="filter2_d_21_152" x="-15.5" y="459.5" width="1311" height="272" filterUnits="userSpaceOnUse" color-interpolation-filters="sRGB">
<feFlood flood-opacity="0" result="BackgroundImageFix"/>
<feColorMatrix in="SourceAlpha" type="matrix" values="0 0 0 0 0 0 0 0 0 0 0 0 0 0 0 0 0 0 127 0" result="hardAlpha"/>
<feOffset dy="-4"/>
<feGaussianBlur stdDeviation="7.75"/>
<feComposite in2="hardAlpha" operator="out"/>
<feColorMatrix type="matrix" values="0 0 0 0 0 0 0 0 0 0 0 0 0 0 0 0 0 0 0.25 0"/>
<feBlend mode="normal" in2="BackgroundImageFix" result="effect1_dropShadow_21_152"/>
<feBlend mode="normal" in="SourceGraphic" in2="effect1_dropShadow_21_152" result="shape"/>
</filter>
<linearGradient id="paint0_linear_21_152" x1="298" y1="-547" x2="-191.548" y2="345.549" gradientUnits="userSpaceOnUse">
<stop stop-color="#F7CCA1"/>
<stop offset="1" stop-color="#FC0341"/>
</linearGradient>
<linearGradient id="paint1_linear_21_152" x1="1207.5" y1="428.5" x2="924.728" y2="-150.627" gradientUnits="userSpaceOnUse">
<stop stop-color="#F7CCA1"/>
<stop offset="1" stop-color="#FC0341"/>
</linearGradient>
<linearGradient id="paint2_linear_21_152" x1="1247.5" y1="474.5" x2="1019.42" y2="1095.36" gradientUnits="userSpaceOnUse">
<stop stop-color="#F7CCA1"/>
<stop offset="1" stop-color="#FC0341"/>
</linearGradient>
<linearGradient id="paint3_linear_21_152" x1="329.5" y1="600" x2="423.57" y2="912.827" gradientUnits="userSpaceOnUse">
<stop stop-color="#F7CCA1"/>
<stop offset="1" stop-color="#FC0341"/>
</linearGradient>
</defs>
</svg>
