<svg width="342" height="420" viewBox="0 0 342 420" fill="none" xmlns="http://www.w3.org/2000/svg">
<path d="M17 23C17 18.5817 20.5817 15 25 15H326V405H25C20.5817 405 17 401.418 17 397V23Z" fill="url(#paint0_linear_0_1)"/>
<g filter="url(#filter0_d_0_1)">
<path fill-rule="evenodd" clip-rule="evenodd" d="M16.7514 163.745C24.7513 166.745 28.2513 168.245 34.2512 172.745C40.2511 177.245 37.2513 175.245 59.7512 192.245C82.2511 209.245 87.2513 211.745 122.751 219.745C205.184 238.321 245.251 202.245 260.251 163.245C273.328 129.245 255.472 111.865 230.251 87.245C209.251 66.7449 205.251 64.745 200.251 58.245C200.251 58.245 192.251 47.745 189.751 36.245C187.251 24.745 189.751 14.245 189.751 14.245L325.751 14.2449L325.751 152.245C315.251 162.745 317.751 159.245 299.751 177.245C281.751 206.245 271.251 219.745 260.251 255.245C243.251 324.745 215.251 346.745 172.751 352.745C140.751 357.263 81.2513 355.245 62.7513 349.245L16.7513 328.745L16.7514 163.745Z" fill="url(#paint1_linear_0_1)"/>
<path fill-rule="evenodd" clip-rule="evenodd" d="M16.7514 163.745C24.7513 166.745 28.2513 168.245 34.2512 172.745C40.2511 177.245 37.2513 175.245 59.7512 192.245C82.2511 209.245 87.2513 211.745 122.751 219.745C205.184 238.321 245.251 202.245 260.251 163.245C273.328 129.245 255.472 111.865 230.251 87.245C209.251 66.7449 205.251 64.745 200.251 58.245C200.251 58.245 192.251 47.745 189.751 36.245C187.251 24.745 189.751 14.245 189.751 14.245L325.751 14.2449L325.751 152.245C315.251 162.745 317.751 159.245 299.751 177.245C281.751 206.245 271.251 219.745 260.251 255.245C243.251 324.745 215.251 346.745 172.751 352.745C140.751 357.263 81.2513 355.245 62.7513 349.245L16.7513 328.745L16.7514 163.745Z" stroke="none"/>
</g>
<g filter="url(#filter1_d_0_1)">
<path fill-rule="evenodd" clip-rule="evenodd" d="M17 324.438C17 324.438 24 324.938 30 327.438C36 329.938 86 355.438 114 355.438C143.5 357.438 183.325 352.219 204.5 337C236.5 314 249.5 267.938 272.5 223.938C292.994 184.731 308.5 162.938 326 152.938V333.438C326 333.438 319.997 344.061 315.5 350.438C311.335 356.345 309 359.876 304 364.938C299 370 300 369.5 289.5 377.938C279 386.376 269.673 390.373 249.5 397.938C225.5 406.938 197 405 172 405C146 405 119.5 405 93.5 405C68.5 405 38 405 25 405C25 405 21.5 405 19.5 403C17.2362 400.736 17 398 17 398V395V324.438Z" fill="url(#paint2_linear_0_1)"/>
<path fill-rule="evenodd" clip-rule="evenodd" d="M17 324.438C17 324.438 24 324.938 30 327.438C36 329.938 86 355.438 114 355.438C143.5 357.438 183.325 352.219 204.5 337C236.5 314 249.5 267.938 272.5 223.938C292.994 184.731 308.5 162.938 326 152.938V333.438C326 333.438 319.997 344.061 315.5 350.438C311.335 356.345 309 359.876 304 364.938C299 370 300 369.5 289.5 377.938C279 386.376 269.673 390.373 249.5 397.938C225.5 406.938 197 405 172 405C146 405 119.5 405 93.5 405C68.5 405 38 405 25 405C25 405 21.5 405 19.5 403C17.2362 400.736 17 398 17 398V395V324.438Z" fill="url(#paint3_linear_0_1)" fill-opacity="0.2"/>
<path fill-rule="evenodd" clip-rule="evenodd" d="M17 324.438C17 324.438 24 324.938 30 327.438C36 329.938 86 355.438 114 355.438C143.5 357.438 183.325 352.219 204.5 337C236.5 314 249.5 267.938 272.5 223.938C292.994 184.731 308.5 162.938 326 152.938V333.438C326 333.438 319.997 344.061 315.5 350.438C311.335 356.345 309 359.876 304 364.938C299 370 300 369.5 289.5 377.938C279 386.376 269.673 390.373 249.5 397.938C225.5 406.938 197 405 172 405C146 405 119.5 405 93.5 405C68.5 405 38 405 25 405C25 405 21.5 405 19.5 403C17.2362 400.736 17 398 17 398V395V324.438Z" stroke="none"/>
</g>
<defs>
<filter id="filter0_d_0_1" x="0.851343" y="0.344934" width="340.8" height="372.76" filterUnits="userSpaceOnUse" color-interpolation-filters="sRGB">
<feFlood flood-opacity="0" result="BackgroundImageFix"/>
<feColorMatrix in="SourceAlpha" type="matrix" values="0 0 0 0 0 0 0 0 0 0 0 0 0 0 0 0 0 0 127 0" result="hardAlpha"/>
<feOffset dy="2"/>
<feGaussianBlur stdDeviation="7.95"/>
<feComposite in2="hardAlpha" operator="out"/>
<feColorMatrix type="matrix" values="0 0 0 0 0 0 0 0 0 0 0 0 0 0 0 0 0 0 0.25 0"/>
<feBlend mode="normal" in2="BackgroundImageFix" result="effect1_dropShadow_0_1"/>
<feBlend mode="normal" in="SourceGraphic" in2="effect1_dropShadow_0_1" result="shape"/>
</filter>
<filter id="filter1_d_0_1" x="5.9" y="144.838" width="331.2" height="274.438" filterUnits="userSpaceOnUse" color-interpolation-filters="sRGB">
<feFlood flood-opacity="0" result="BackgroundImageFix"/>
<feColorMatrix in="SourceAlpha" type="matrix" values="0 0 0 0 0 0 0 0 0 0 0 0 0 0 0 0 0 0 127 0" result="hardAlpha"/>
<feOffset dy="3"/>
<feGaussianBlur stdDeviation="5.55"/>
<feComposite in2="hardAlpha" operator="out"/>
<feColorMatrix type="matrix" values="0 0 0 0 0 0 0 0 0 0 0 0 0 0 0 0 0 0 0.25 0"/>
<feBlend mode="normal" in2="BackgroundImageFix" result="effect1_dropShadow_0_1"/>
<feBlend mode="normal" in="SourceGraphic" in2="effect1_dropShadow_0_1" result="shape"/>
</filter>
<linearGradient id="paint0_linear_0_1" x1="31.5" y1="97.5" x2="241.528" y2="229.394" gradientUnits="userSpaceOnUse">
<stop stop-color="#F7CCA1"/>
<stop offset="1" stop-color="#FC0341"/>
</linearGradient>
<linearGradient id="paint1_linear_0_1" x1="286.751" y1="64.745" x2="56.9426" y2="198.32" gradientUnits="userSpaceOnUse">
<stop stop-color="#F7CCA1"/>
<stop offset="1" stop-color="#FC0341"/>
</linearGradient>
<linearGradient id="paint2_linear_0_1" x1="317" y1="198" x2="173.001" y2="555.803" gradientUnits="userSpaceOnUse">
<stop stop-color="#F7CCA1"/>
<stop offset="1" stop-color="#FC0341"/>
</linearGradient>
<linearGradient id="paint3_linear_0_1" x1="38.5" y1="387.5" x2="107.5" y2="466" gradientUnits="userSpaceOnUse">
<stop stop-color="#F5C99F"/>
<stop offset="1" stop-color="#FC0341"/>
</linearGradient>
</defs>
</svg>