<svg width="1000" height="237" viewBox="0 0 1000 237" fill="none" xmlns="http://www.w3.org/2000/svg">
<g filter="url(#filter0_d_25_113)">
<path fill-rule="evenodd" clip-rule="evenodd" d="M30 34L70.4167 63C110.833 92 191.667 150 272.5 150C353.333 150 434.167 92 515 72.6667C595.833 53.3333 676.667 72.6667 757.5 96.8333C838.333 121 919.167 150 959.583 164.5L1000 179V237H959.583C919.167 237 838.333 237 757.5 237C676.667 237 595.833 237 515 237C434.167 237 353.333 237 272.5 237C191.667 237 110.833 237 70.4167 237H30V34Z" fill="url(#paint0_linear_25_113)"/>
</g>
<defs>
<filter id="filter0_d_25_113" x="0" y="0" width="1030" height="263" filterUnits="userSpaceOnUse" color-interpolation-filters="sRGB">
<feFlood flood-opacity="0" result="BackgroundImageFix"/>
<feColorMatrix in="SourceAlpha" type="matrix" values="0 0 0 0 0 0 0 0 0 0 0 0 0 0 0 0 0 0 127 0" result="hardAlpha"/>
<feOffset dy="-4"/>
<feGaussianBlur stdDeviation="15"/>
<feComposite in2="hardAlpha" operator="out"/>
<feColorMatrix type="matrix" values="0 0 0 0 0 0 0 0 0 0 0 0 0 0 0 0 0 0 0.25 0"/>
<feBlend mode="normal" in2="BackgroundImageFix" result="effect1_dropShadow_25_113"/>
<feBlend mode="normal" in="SourceGraphic" in2="effect1_dropShadow_25_113" result="shape"/>
</filter>
<linearGradient id="paint0_linear_25_113" x1="72" y1="78.5" x2="190.158" y2="437.569" gradientUnits="userSpaceOnUse">
<stop stop-color="#F7CCA1"/>
<stop offset="1" stop-color="#FC0341"/>
</linearGradient>
</defs>
</svg>
