<svg width="28" height="28" viewBox="0 0 28 28" fill="none" xmlns="http://www.w3.org/2000/svg">
<path fill-rule="evenodd" clip-rule="evenodd" d="M13.237 4.4632C14.262 3.38828 15.672 2.76456 17.1568 2.72924C17.892 2.71176 18.6235 2.83926 19.3095 3.10446C19.9954 3.36967 20.6224 3.76738 21.1547 4.2749C21.6869 4.78242 22.114 5.38981 22.4115 6.06238C22.709 6.73495 22.8711 7.45953 22.8886 8.19476C22.9061 8.92998 22.7786 9.66145 22.5134 10.3474C22.2482 11.0334 21.8505 11.6604 21.343 12.1926L13.8544 20.0438C13.2777 20.6487 12.4844 20.9997 11.649 21.0196C10.8136 21.0396 10.0044 20.7268 9.39957 20.1502C8.79472 19.5736 8.44371 18.7803 8.42375 17.9448C8.4038 17.1094 8.71654 16.3003 9.29317 15.6954L15.5722 9.107C15.6356 9.04045 15.7115 8.98704 15.7956 8.94983C15.8797 8.91261 15.9702 8.89232 16.0621 8.89011C16.1541 8.8879 16.2455 8.90381 16.3313 8.93695C16.417 8.97008 16.4954 9.01978 16.562 9.0832C16.6285 9.14663 16.6819 9.22255 16.7191 9.30662C16.7564 9.39069 16.7767 9.48126 16.7789 9.57317C16.7811 9.66509 16.7652 9.75653 16.732 9.84229C16.6989 9.92805 16.6492 10.0065 16.5858 10.073L10.3068 16.66C9.98634 16.996 9.81251 17.4456 9.82354 17.9098C9.83457 18.374 10.0295 18.8148 10.3656 19.1352C10.7016 19.4556 11.1512 19.6295 11.6153 19.6184C12.0795 19.6074 12.5203 19.4124 12.8408 19.0764L20.3294 11.2252C20.71 10.8261 21.0084 10.3559 21.2073 9.84143C21.4062 9.32699 21.5019 8.77842 21.4888 8.22701C21.4758 7.67561 21.3542 7.13218 21.1311 6.62775C20.9081 6.12332 20.5878 5.66777 20.1887 5.2871C19.7895 4.90644 19.3193 4.60812 18.8049 4.40918C18.2905 4.21024 17.7419 4.11457 17.1905 4.12763C16.6391 4.1407 16.0956 4.26224 15.5912 4.48533C15.0868 4.70841 14.6312 5.02866 14.2506 5.4278L7.48717 12.5216C7.35907 12.656 7.18282 12.734 6.9972 12.7385C6.81158 12.743 6.63178 12.6735 6.49737 12.5454C6.36296 12.4173 6.28494 12.2411 6.28048 12.0554C6.27601 11.8698 6.34547 11.69 6.47357 11.5556L13.237 4.4632Z" fill="#B97878"/>
<path fill-rule="evenodd" clip-rule="evenodd" d="M6.24821 22.9473C5.63361 22.3608 5.09461 21.4689 4.64521 20.4861C3.65121 18.3133 4.40721 15.7499 6.18101 13.8893L12.32 7.45495C12.4481 7.32054 12.5176 7.14074 12.5131 6.95512C12.5086 6.76949 12.4306 6.59325 12.2962 6.46515C12.1618 6.33705 11.982 6.26759 11.7964 6.27205C11.6108 6.27652 11.4345 6.35454 11.3064 6.48895L5.16881 12.9233C3.13181 15.0597 2.06921 18.2195 3.37121 21.0685C3.85001 22.1143 4.47861 23.1937 5.28221 23.9609C6.07461 24.7169 7.16101 25.2867 8.21381 25.7123C11.1468 26.9009 14.2856 25.6577 16.3212 23.4821L24.29 14.9687C24.3529 14.9016 24.4019 14.8228 24.4343 14.7367C24.4668 14.6507 24.4819 14.5591 24.4789 14.4672C24.4759 14.3753 24.4549 14.2848 24.4169 14.2011C24.379 14.1173 24.3249 14.0418 24.2578 13.9789C24.1907 13.9161 24.1119 13.867 24.0258 13.8346C23.9398 13.8022 23.8482 13.7871 23.7562 13.7901C23.6643 13.793 23.5739 13.8141 23.4901 13.852C23.4064 13.89 23.3309 13.944 23.268 14.0111L15.2992 22.5259C13.5254 24.4215 10.9746 25.3203 8.73881 24.4159C7.75321 24.0155 6.85441 23.5255 6.24821 22.9473Z" fill="#B97878"/>
</svg>
