<svg width="20" height="20" viewBox="0 0 20 20" fill="none" xmlns="http://www.w3.org/2000/svg">
<path d="M9.66671 4.16667C9.66671 3.24619 8.92052 2.5 8.00004 2.5C7.07957 2.5 6.33337 3.24619 6.33337 4.16667C6.33337 5.08714 7.07957 5.83333 8.00004 5.83333C8.92052 5.83333 9.66671 5.08714 9.66671 4.16667Z" fill="#FC0341"/>
<path d="M9.66671 10C9.66671 9.07957 8.92052 8.33337 8.00004 8.33337C7.07957 8.33337 6.33337 9.07957 6.33337 10C6.33337 10.9205 7.07957 11.6667 8.00004 11.6667C8.92052 11.6667 9.66671 10.9205 9.66671 10Z" fill="#FC0341"/>
<path d="M9.66671 15.8333C9.66671 14.9128 8.92052 14.1666 8.00004 14.1666C7.07957 14.1666 6.33337 14.9128 6.33337 15.8333C6.33337 16.7538 7.07957 17.5 8.00004 17.5C8.92052 17.5 9.66671 16.7538 9.66671 15.8333Z" fill="#FC0341"/>
</svg>
