<svg width="33" height="33" viewBox="0 0 33 33" fill="none" xmlns="http://www.w3.org/2000/svg">
<path fill-rule="evenodd" clip-rule="evenodd" d="M16.5 4.125C14.8749 4.125 13.2657 4.44509 11.7643 5.06699C10.2629 5.68889 8.89868 6.60043 7.74956 7.74956C6.60043 8.89868 5.68889 10.2629 5.06699 11.7643C4.44509 13.2657 4.125 14.8749 4.125 16.5C4.125 18.1251 4.44509 19.7343 5.06699 21.2357C5.68889 22.7371 6.60043 24.1013 7.74955 25.2504C8.89868 26.3996 10.2629 27.3111 11.7643 27.933C13.2657 28.5549 14.8749 28.875 16.5 28.875C19.7821 28.875 22.9297 27.5712 25.2504 25.2504C27.5712 22.9297 28.875 19.7821 28.875 16.5C28.875 13.2179 27.5712 10.0703 25.2504 7.74956C22.9297 5.4288 19.7821 4.125 16.5 4.125Z" fill="#FC0341"/>
<path fill-rule="evenodd" clip-rule="evenodd" d="M16.5 27.8437C19.5085 27.8437 22.3939 26.6486 24.5212 24.5212C26.6486 22.3939 27.8438 19.5086 27.8438 16.5C27.8438 13.4915 26.6486 10.6061 24.5212 8.47876C22.3939 6.35139 19.5085 5.15625 16.5 5.15625C13.4914 5.15625 10.6061 6.35139 8.47875 8.47876C6.35139 10.6061 5.15625 13.4915 5.15625 16.5C5.15625 19.5085 6.35139 22.3939 8.47875 24.5212C10.6061 26.6486 13.4914 27.8437 16.5 27.8437ZM29.9063 16.5C29.9063 23.9044 23.9044 29.9062 16.5 29.9062C9.09562 29.9062 3.09375 23.9044 3.09375 16.5C3.09375 9.09563 9.09562 3.09375 16.5 3.09375C23.9044 3.09375 29.9063 9.09563 29.9063 16.5Z" fill="#FC0341"/>
<path fill-rule="evenodd" clip-rule="evenodd" d="M21.2438 16.5C21.2438 16.7735 21.1351 17.0358 20.9417 17.2292C20.7483 17.4226 20.486 17.5312 20.2125 17.5312L11.9625 17.5312C11.689 17.5312 11.4267 17.4226 11.2333 17.2292C11.0399 17.0358 10.9313 16.7735 10.9313 16.5C10.9313 16.2265 11.0399 15.9642 11.2333 15.7708C11.4267 15.5774 11.689 15.4687 11.9625 15.4687L20.2125 15.4688C20.486 15.4688 20.7483 15.5774 20.9417 15.7708C21.1351 15.9642 21.2438 16.2265 21.2438 16.5Z" fill="white"/>
<path fill-rule="evenodd" clip-rule="evenodd" d="M16.7337 21.2162C16.5406 21.0229 16.4321 20.7608 16.4321 20.4875C16.4321 20.2142 16.5406 19.9521 16.7337 19.7587L19.9237 16.5687L16.7337 13.3787C16.5516 13.1832 16.4524 12.9247 16.4571 12.6575C16.4618 12.3903 16.5701 12.1354 16.759 11.9465C16.948 11.7576 17.2029 11.6493 17.47 11.6446C17.7372 11.6399 17.9957 11.7391 18.1912 11.9212L21.6287 15.3587C21.7895 15.5166 21.9173 15.7048 22.0045 15.9126C22.0917 16.1204 22.1366 16.3434 22.1366 16.5687C22.1366 16.794 22.0917 17.0171 22.0045 17.2249C21.9173 17.4326 21.7895 17.6209 21.6287 17.7787L18.1912 21.2162C17.9979 21.4093 17.7358 21.5178 17.4625 21.5178C17.1892 21.5178 16.9271 21.4093 16.7337 21.2162Z" fill="white"/>
</svg>
